<svg id="レイヤー_1" data-name="レイヤー 1" xmlns="http://www.w3.org/2000/svg" viewBox="0 0 269.68 289.57"><defs><style>.cls-1{fill:#99999a;}.cls-2{fill:none;}</style></defs><title>アートボード 4</title><polygon class="cls-1" points="192.52 47.09 151.32 47.09 151.32 123.6 121.89 123.6 125.42 164.8 192.52 164.8 192.52 164.8 192.52 164.8 192.52 47.09"/><polygon class="cls-1" points="145.43 88.28 141.9 47.09 74.81 47.09 74.81 200.11 116.01 200.11 116.01 88.28 145.43 88.28"/><path class="cls-1" d="M181.34,218.53a12.18,12.18,0,1,0,12.3,12.18A12.24,12.24,0,0,0,181.34,218.53Zm0,20.54a8.37,8.37,0,1,1,8-8.36A8.19,8.19,0,0,1,181.34,239.07Z"/><polygon class="cls-1" points="81.46 232.48 93.23 232.48 93.23 228.72 81.46 228.72 81.46 222.69 94.64 222.69 94.64 218.95 77.22 218.95 77.22 242.49 94.88 242.49 94.88 238.75 81.46 238.75 81.46 232.48"/><polygon class="cls-1" points="210.35 238.72 210.35 218.95 206.12 218.95 206.12 242.49 222.59 242.49 222.59 238.72 210.35 238.72"/><path class="cls-1" d="M56.38,218.95h-9.3v23.54h4.24V235h5.06c5.12,0,8.83-3.58,8.83-8S62.51,218.95,56.38,218.95ZM56,231.19H51.32v-8.48H56c3.48,0,5.06,1.9,5.06,4.24S59.27,231.19,56,231.19Z"/><path class="cls-1" d="M127.6,227c0-4.42-2.71-8-8.83-8h-9.3v23.54h4.24V235h4.61l5.28,7.53h4.94l-5.83-8.33A7.85,7.85,0,0,0,127.6,227Zm-9.18,4.24h-4.71v-8.48h4.71c3.48,0,5.06,1.9,5.06,4.24S121.65,231.19,118.42,231.19Z"/><path class="cls-1" d="M155.27,230.51a18.6,18.6,0,0,0-5.52-2c-4-1-4.66-1.73-4.66-3.07,0-2,2-2.94,3.93-2.94a11.84,11.84,0,0,1,6.44,2.18,12.09,12.09,0,0,1,2,1.74v-5.19a15.65,15.65,0,0,0-8.48-2.73c-4.6,0-7.93,2.92-7.93,6.95,0,5,4.81,6.23,7.68,7,4.45,1.12,5.48,1.8,5.48,3.64a2.16,2.16,0,0,1-1.06,2,7.19,7.19,0,0,1-3.69.81c-3.4,0-7.11-2.46-8.24-3.57v5l.21.13a16.67,16.67,0,0,0,8,2.48c5.4,0,8.76-2.62,8.76-6.83A6.17,6.17,0,0,0,155.27,230.51Z"/><rect class="cls-2" x="0.43" y="-0.08" width="269.38" height="289.38"/></svg>